<svg width="113" height="113" viewBox="0 0 113 113" fill="none" xmlns="http://www.w3.org/2000/svg">
<path opacity="0.5" d="M29.6607 100.257C48.5933 100.257 61.5946 109 70.7174 109C79.8402 109 99 104.325 99 66.9087C99 29.4929 73.2246 24 63.1903 24C16.2023 24 -3.86894 100.257 29.6607 100.257Z" fill="#F5F3F7"/>
<path d="M102.856 59.7396C102.756 58.5595 101.996 57.5905 100.875 57.2105L91.771 54.1278L100.634 43.9599C101.222 43.285 101.468 42.3925 101.309 41.5115C101.15 40.6305 100.607 39.8805 99.8198 39.4539L88.386 33.2591C87.6389 32.8545 86.7058 33.1318 86.3008 33.8787C85.8961 34.6255 86.1736 35.5591 86.9203 35.9637L98.197 42.0734L88.7525 52.9088L58.9214 36.7459L64.4567 30.3956C65.0937 30.6294 65.7815 30.7569 66.4985 30.7569C68.7246 30.7569 70.6678 29.5258 71.6856 27.7095L80.2331 32.3406C80.466 32.4667 80.7169 32.5266 80.9644 32.5266C81.5107 32.5266 82.0396 32.2349 82.3183 31.7208C82.7229 30.9739 82.4455 30.0404 81.6986 29.6358L72.4364 24.6177C72.332 21.4318 69.7096 18.8718 66.4987 18.8718C63.2219 18.8718 60.5561 21.5376 60.5561 24.8144C60.5561 26.2571 61.0733 27.5809 61.9314 28.6114L56.5001 34.8425L46.8775 23.8033C45.969 22.7609 44.4857 22.4929 43.2694 23.1516L39.508 25.1894C39.0673 21.7041 36.086 18.9991 32.483 18.9991C28.5775 18.9991 25.4 22.1766 25.4 26.0824C25.4 28.2418 26.3727 30.1776 27.9015 31.4778L13.1801 39.4539C12.393 39.8805 11.8504 40.6303 11.691 41.5115C11.5321 42.3925 11.7782 43.285 12.3666 43.9597L21.2289 54.1276L12.1256 57.2101C11.0036 57.5901 10.2442 58.5591 10.1437 59.7392C10.0432 60.9192 10.6277 62.0028 11.6691 62.567L22.3593 68.3588V81.7575C22.3593 82.6069 23.0477 80.2194 23.8974 80.2194C24.747 80.2194 25.4355 83.3496 25.4355 82.5002V70.0255L40.3915 78.1286C41.0295 78.4744 41.7413 78.6501 42.4558 78.6501C42.923 78.6501 43.3916 78.5749 43.8411 78.4227L54.9622 74.6572V105.26L26.0909 89.6165C25.6867 89.3975 25.4357 88.9759 25.4357 88.5161V81.7575C25.4357 80.9081 24.747 80.2194 23.8974 80.2194C23.0477 80.2194 22.3593 80.9081 22.3593 81.7575L22.3595 88.5161C22.3595 90.1059 23.2276 91.5638 24.6254 92.3211L54.4386 108.475C55.0842 108.824 55.7923 108.999 56.5005 108.999C57.2086 108.999 57.9167 108.824 58.5623 108.475L88.3755 92.3211C89.7731 91.5638 90.6415 90.1059 90.6415 88.5161V68.3586L101.331 62.5668C102.372 62.0032 102.957 60.9198 102.856 59.7396ZM59.9003 47.8405C65.2844 49.3539 69.0448 54.3189 69.0448 59.9145C69.0448 61.4727 68.7648 62.9849 68.2115 64.4178L56.5001 70.7632L44.7886 64.4178C44.2355 62.9849 43.9553 61.4727 43.9553 59.9145C43.9553 54.3017 47.73 49.3324 53.1351 47.8302C53.9534 47.6028 54.4324 46.7548 54.205 45.9365C53.9778 45.118 53.1294 44.6392 52.3113 44.8664C45.5804 46.7373 40.8794 52.9252 40.8794 59.9145C40.8794 60.7574 40.9477 61.5894 41.0789 62.4081L27.1261 54.8482L56.5005 38.9328L85.8746 54.8484L71.9218 62.4083C72.0531 61.5896 72.1214 60.7576 72.1214 59.9147C72.1214 52.9467 67.4384 46.764 60.7331 44.8791C59.9152 44.649 59.066 45.126 58.8363 45.9435C58.6058 46.7613 59.0822 47.6106 59.9003 47.8405ZM66.4985 21.9484C68.079 21.9484 69.3651 23.2342 69.3651 24.8148C69.3651 26.3953 68.079 27.6814 66.4985 27.6814C64.9179 27.6814 63.6321 26.3953 63.6321 24.8148C63.6321 23.2342 64.9179 21.9484 66.4985 21.9484ZM32.483 22.0757C34.6923 22.0757 36.4901 23.8732 36.4901 26.0828C36.4901 28.2921 34.6923 30.0898 32.483 30.0898C30.2737 30.0898 28.4762 28.2923 28.4762 26.0828C28.4762 23.8732 30.2737 22.0757 32.483 22.0757ZM31.3977 33.0827C31.7517 33.1375 32.1141 33.166 32.483 33.166C35.3496 33.166 37.8218 31.4534 38.9356 28.9986L44.634 25.9113L54.0783 36.7463L24.2472 52.9092L14.8027 42.0738L31.3977 33.0827ZM42.8543 75.5095C42.5253 75.6211 42.1615 75.5897 41.8568 75.4244L24.6369 66.0948C24.6324 66.0923 24.6276 66.0898 24.6231 66.0874L13.4229 60.0191L23.7544 56.5206L52.6686 72.1866L42.8543 75.5095ZM87.5647 88.5167C87.5647 88.9765 87.3134 89.3981 86.9094 89.6172L58.0381 105.26V74.6579L69.1592 78.4233C69.6087 78.5755 70.0773 78.6507 70.5447 78.6507C71.2588 78.6507 71.9708 78.4748 72.6088 78.1292L87.5649 70.0261L87.5647 88.5167ZM71.1431 75.4244C70.8384 75.5897 70.4746 75.6211 70.1456 75.5095L60.3316 72.1866L89.2457 56.5206L99.5772 60.0191L71.1431 75.4244Z" fill="#ABA7AF"/>
<path d="M68.0028 91.0937L64.4744 93.0055C63.7275 93.4101 63.4502 94.3436 63.8549 95.0905C64.1334 95.6044 64.6625 95.8962 65.2088 95.8962C65.4561 95.8962 65.7073 95.8364 65.9401 95.7102L69.4685 93.7985C70.2154 93.3939 70.4926 92.4604 70.088 91.7135C69.6834 90.9666 68.7503 90.6889 68.0028 91.0937Z" fill="#ABA7AF"/>
<path d="M38.3903 16.9526C38.6908 17.2528 39.0845 17.4031 39.4781 17.4031C39.8716 17.4031 40.2654 17.253 40.5658 16.9526L41.8346 15.6837L43.1034 16.9526C43.4039 17.2528 43.7976 17.4031 44.1912 17.4031C44.5847 17.4031 44.9785 17.253 45.2789 16.9526C45.8796 16.3519 45.8796 15.378 45.2789 14.7775L44.0099 13.5085L45.2789 12.2395C45.8796 11.6388 45.8796 10.6649 45.2789 10.0644C44.678 9.46372 43.7043 9.46372 43.1036 10.0644L41.8348 11.3332L40.566 10.0644C39.9651 9.46372 38.9914 9.46372 38.3907 10.0644C37.7901 10.6651 37.7901 11.639 38.3907 12.2395L39.6598 13.5085L38.3907 14.7775C37.7897 15.378 37.7897 16.3519 38.3903 16.9526Z" fill="#ABA7AF"/>
<path d="M83.9264 27.0282C84.2268 27.3284 84.6206 27.4787 85.0141 27.4787C85.4077 27.4787 85.8014 27.3286 86.1019 27.0282L87.3707 25.7594L88.6395 27.0282C88.94 27.3284 89.3337 27.4787 89.7273 27.4787C90.1208 27.4787 90.5145 27.3286 90.815 27.0282C91.4157 26.4275 91.4157 25.4536 90.815 24.8531L89.546 23.5841L90.815 22.3151C91.4157 21.7144 91.4157 20.7405 90.815 20.14C90.2141 19.5393 89.2404 19.5393 88.6397 20.14L87.3709 21.4088L86.1021 20.14C85.5012 19.5393 84.5275 19.5393 83.9268 20.14C83.3261 20.7407 83.3261 21.7146 83.9268 22.3151L85.1958 23.5841L83.9268 24.8531C83.3257 25.4536 83.3257 26.4275 83.9264 27.0282Z" fill="#ABA7AF"/>
<path d="M75.4348 17.4021C79.1299 17.4021 82.136 14.396 82.136 10.7011C82.1358 7.00603 79.1297 4 75.4348 4C71.7399 4 68.7337 7.00603 68.7337 10.7011C68.7337 14.396 71.7397 17.4021 75.4348 17.4021ZM75.4348 7.07617C77.4335 7.07617 79.0598 8.70224 79.0598 10.7011C79.0598 12.6998 77.4335 14.3259 75.4348 14.3259C73.4361 14.3259 71.8099 12.6998 71.8099 10.7011C71.8099 8.70224 73.4361 7.07617 75.4348 7.07617Z" fill="#ABA7AF"/>
<path d="M56.3264 61.5278C54.8445 61.5278 53.4459 62.0192 52.386 62.9129C51.7367 63.4605 51.6541 64.4309 52.2019 65.0802C52.7492 65.7297 53.7196 65.8121 54.3691 65.2645C54.8675 64.8443 55.5803 64.6038 56.3266 64.6038H56.3368C57.0868 64.606 57.8023 64.8511 58.3005 65.2762C58.5902 65.5236 58.9452 65.6443 59.2982 65.6443C59.7327 65.6443 60.1646 65.4612 60.4688 65.1048C61.0202 64.4588 60.9435 63.4877 60.2975 62.9363C59.2385 62.0323 57.8349 61.5319 56.3457 61.5274C56.3393 61.5278 56.3327 61.5278 56.3264 61.5278Z" fill="#ABA7AF"/>
<path d="M49.819 56.9728H49.8047C48.9544 56.9603 48.2692 57.651 48.2631 58.5002C48.2574 59.3497 48.9483 60.043 49.7977 60.049H49.8086C50.6529 60.049 51.3405 59.3673 51.3464 58.5216C51.3524 57.6721 50.6687 56.9788 49.819 56.9728Z" fill="#ABA7AF"/>
<path d="M62.8945 60.0172C62.8998 60.0183 62.9053 60.0189 62.9107 60.0199C62.955 60.0285 62.9999 60.0357 63.0454 60.0404C63.0602 60.0419 63.0751 60.0419 63.0899 60.0429C63.1241 60.0453 63.1584 60.0486 63.1935 60.0488H63.2043C63.2572 60.0488 63.3095 60.0462 63.3612 60.0408C64.1379 59.9631 64.7441 59.3077 64.7441 58.5105C64.7441 57.7239 64.1532 57.0764 63.3914 56.9848C63.3844 56.9839 63.3776 56.9823 63.3707 56.9817C63.3356 56.978 63.2997 56.977 63.2638 56.9755C63.2474 56.9749 63.2314 56.9729 63.2148 56.9727H63.2068C63.2066 56.9727 63.2062 56.9727 63.206 56.9727H63.2004H63.1914C63.1908 56.9727 63.1902 56.9727 63.1896 56.9727C62.3453 56.9727 61.6648 57.6543 61.6589 58.5001C61.6537 59.2472 62.1877 59.8731 62.8945 60.0172Z" fill="#ABA7AF"/>
</svg>
