<svg width="56" height="56" viewBox="0 0 56 56" fill="none" xmlns="http://www.w3.org/2000/svg">
<path d="M15.5625 31.125H39.7708C40.7258 31.125 41.5 31.8992 41.5 32.8541C41.5 33.7295 40.8493 34.453 40.0055 34.5676L39.7708 34.5833H15.5625C14.6075 34.5833 13.8333 33.8091 13.8333 32.8541C13.8333 31.9787 14.4838 31.2552 15.3278 31.1406L15.5625 31.125ZM39.7708 38.0416H15.5625L15.3278 38.0573C14.4838 38.1719 13.8333 38.8954 13.8333 39.7708C13.8333 40.7258 14.6075 41.5 15.5625 41.5H39.7708L40.0055 41.4843C40.8493 41.3697 41.5 40.6462 41.5 39.7708C41.5 38.8158 40.7258 38.0416 39.7708 38.0416ZM48.4166 13.2569C48.4166 9.75527 45.578 6.91663 42.0763 6.91663H13.2569C9.75527 6.91663 6.91663 9.75527 6.91663 13.2569V42.0763C6.91663 45.578 9.75527 48.4166 13.2569 48.4166H42.0763C45.578 48.4166 48.4166 45.578 48.4166 42.0763V13.2569ZM13.2569 10.375H42.0763C43.6681 10.375 44.9583 11.6652 44.9583 13.2569V42.0763C44.9583 43.6681 43.6681 44.9583 42.0763 44.9583H13.2569C11.6652 44.9583 10.375 43.6681 10.375 42.0763V13.2569C10.375 11.6652 11.6652 10.375 13.2569 10.375Z" fill="#607485"/>
</svg>
