<svg width="49" height="49" viewBox="0 0 49 49" fill="none" xmlns="http://www.w3.org/2000/svg">
<rect width="48.6435" height="48.6435" rx="24.3218" fill="#A2C5EA"/>
<path d="M17.4932 14.7668C16.6293 14.7668 15.8008 15.11 15.1899 15.7209C14.5791 16.3318 14.2359 17.1603 14.2359 18.0242V27.1449C14.2359 28.0088 14.5791 28.8373 15.1899 29.4482C15.8008 30.0591 16.6293 30.4023 17.4932 30.4023H18.579V33.2653C18.579 34.5048 19.9828 35.2232 20.9886 34.4979L26.6652 30.4023H31.8257C32.6896 30.4023 33.5182 30.0591 34.129 29.4482C34.7399 28.8373 35.0831 28.0088 35.0831 27.1449V18.0242C35.0831 17.1603 34.7399 16.3318 34.129 15.7209C33.5182 15.11 32.6896 14.7668 31.8257 14.7668H17.4932Z" fill="#4799EB"/>
</svg>
