<svg width="49" height="49" viewBox="0 0 49 49" fill="none" xmlns="http://www.w3.org/2000/svg">
<rect width="48.6435" height="48.6435" rx="24.3218" fill="#A2C5EA"/>
<path d="M14.4436 13.7616C14.3163 13.6979 14.1738 13.6713 14.0322 13.6846C13.8905 13.698 13.7555 13.7509 13.6424 13.8372C13.5294 13.9235 13.4428 14.0398 13.3925 14.1729C13.3423 14.306 13.3304 14.4505 13.3582 14.59L15.4909 21.9626C15.5307 22.0999 15.6084 22.2233 15.7152 22.3185C15.8219 22.4137 15.9534 22.4768 16.0944 22.5007L24.7438 23.9493C25.1512 24.0299 25.1512 24.6136 24.7438 24.6942L16.0944 26.1429C15.9534 26.1667 15.8219 26.2298 15.7152 26.325C15.6084 26.4202 15.5307 26.5436 15.4909 26.681L13.3582 34.0535C13.3304 34.193 13.3423 34.3375 13.3925 34.4706C13.4428 34.6037 13.5294 34.72 13.6424 34.8064C13.7555 34.8927 13.8905 34.9455 14.0322 34.9589C14.1738 34.9723 14.3163 34.9456 14.4436 34.882L34.205 25.0013C34.3311 24.9381 34.4371 24.841 34.5112 24.721C34.5853 24.601 34.6245 24.4628 34.6245 24.3218C34.6245 24.1807 34.5853 24.0425 34.5112 23.9225C34.4371 23.8025 34.3311 23.7055 34.205 23.6423L14.4436 13.7616Z" fill="#54CE3B"/>
</svg>
