<svg width="49" height="50" viewBox="0 0 49 50" fill="none" xmlns="http://www.w3.org/2000/svg">
<rect y="0.428101" width="48.6435" height="48.6435" rx="24.3218" fill="#A2C5EA"/>
<path d="M16.7212 33.3638C16.7212 33.3638 15.2011 33.3638 15.2011 31.8436C15.2011 30.3235 16.7212 25.7632 24.3217 25.7632C31.9223 25.7632 33.4424 30.3235 33.4424 31.8436C33.4424 33.3638 31.9223 33.3638 31.9223 33.3638H16.7212ZM24.3217 24.2431C25.5312 24.2431 26.6912 23.7626 27.5464 22.9074C28.4016 22.0522 28.8821 20.8922 28.8821 19.6828C28.8821 18.4733 28.4016 17.3134 27.5464 16.4581C26.6912 15.6029 25.5312 15.1224 24.3217 15.1224C23.1123 15.1224 21.9523 15.6029 21.0971 16.4581C20.2419 17.3134 19.7614 18.4733 19.7614 19.6828C19.7614 20.8922 20.2419 22.0522 21.0971 22.9074C21.9523 23.7626 23.1123 24.2431 24.3217 24.2431Z" fill="#E0804D"/>
</svg>
